<!--LINK https://developer.mozilla.org/en-US/docs/Web/SVG/Element/symbol -->

<svg aria-hidden="true" style="position: absolute; width: 0; height: 0; overflow: hidden;" version="1.1"
  xmlns="http://www.w3.org/2000/svg" xmlns:xlink="http://www.w3.org/1999/xlink">
  <defs>
    <!-- arrow-left -->
    <symbol id="arrow-left" viewBox="0 0 24 24" fill="#1371C8">
      <path d="M0 0h24v24H0V0z" fill="none" />
      <path
        d="M19 11H7.83l4.88-4.88c.39-.39.39-1.03 0-1.42a.996.996 0 00-1.41 0l-6.59 6.59a.996.996 0 000 1.41l6.59 6.59a.996.996 0 101.41-1.41L7.83 13H19c.55 0 1-.45 1-1s-.45-1-1-1z" />
    </symbol>

    <!-- arrow-right -->
    <symbol id="arrow-right" viewBox="0 0 24 24" fill="#1371C8">
      <path d="M0 0h24v24H0V0z" fill="none" />
      <path
        d="M5 13h11.17l-4.88 4.88c-.39.39-.39 1.03 0 1.42.39.39 1.02.39 1.41 0l6.59-6.59a.996.996 0 000-1.41l-6.58-6.6a.996.996 0 10-1.41 1.41L16.17 11H5c-.55 0-1 .45-1 1s.45 1 1 1z" />
    </symbol>


    <symbol id="loading-circle" width="100px" height="100px" viewBox="0 0 100 100" version="1.1">
      <title>loading-circle</title>
      <g id="3DS-2.0-App" stroke="none" stroke-width="1" fill="none" fill-rule="evenodd">
        <g id="Loading-IN-1" transform="translate(-138.000000, -184.000000)">
          <g id="Group-3" transform="translate(138.000000, 184.000000)">
            <g id="Loading-Spinner">
              <rect id="Padding" x="8.14163551e-14" y="-3.0346096e-13" width="98.9669421" height="99.1735537" />
              <path
                d="M50,97.9166667 C76.4636443,97.9166667 97.9166667,76.4636443 97.9166667,50 C97.9166667,23.5363557 76.4636443,2.08333333 50,2.08333333 C23.5363557,2.08333333 2.08333333,23.5363557 2.08333333,50"
                id="Oval" stroke="#005EA6" stroke-width="2" stroke-linecap="square"
                transform="translate(50.000000, 50.000000) scale(-1, 1) translate(-50.000000, -50.000000) " />
            </g>
          </g>
        </g>
      </g>
    </symbol>

    <!-- check-mark -->
    <symbol id="check-mark" viewBox="0 0 18 14">
      <path
        d="M5.79457 10.8749L2.32457 7.40489C2.13774 7.21764 1.88409 7.1124 1.61957 7.1124C1.35505 7.1124 1.1014 7.21764 0.91457 7.40489C0.52457 7.79489 0.52457 8.42489 0.91457 8.81489L5.09457 12.9949C5.48457 13.3849 6.11457 13.3849 6.50457 12.9949L17.0846 2.41489C17.4746 2.02489 17.4746 1.39489 17.0846 1.00489C16.8977 0.817635 16.6441 0.712402 16.3796 0.712402C16.1151 0.712402 15.8614 0.817635 15.6746 1.00489L5.79457 10.8749Z" />
    </symbol>


    <!-- check-mark-green -->
    <symbol id="check-mark-green" fill="none" width="18" height="14" viewBox="0 0 18 14"
      xmlns="http://www.w3.org/2000/svg">
      <path
        d="M5.795 10.875l-3.47-3.47a.996.996 0 1 0-1.41 1.41l4.18 4.18c.39.39 1.02.39 1.41 0l10.58-10.58a.996.996 0 1 0-1.41-1.41l-9.88 9.87z"
        fill="#14BF71" />
    </symbol>

    <!-- chevron-down -->
    <symbol id="chevron-down" viewBox="0 0 25 24">
      <path
        d="M16.3753 9.00001L12.4953 12.88L8.61534 9.00001C8.42851 8.81275 8.17486 8.70752 7.91034 8.70752C7.64582 8.70752 7.39217 8.81275 7.20534 9.00001C6.81534 9.39001 6.81534 10.02 7.20534 10.41L11.7953 15C12.1853 15.39 12.8153 15.39 13.2053 15L17.7953 10.41C18.1853 10.02 18.1853 9.39001 17.7953 9.00001C17.4053 8.62001 16.7653 8.61001 16.3753 9.00001Z"
        fill="#333333" />
    </symbol>

    <!-- sp-logo-blue -->
    <symbol id="sp-logo-blue" viewBox="0 0 165 24" xmlns="http://www.w3.org/2000/svg">
      <path fill-rule="evenodd" clip-rule="evenodd"
        d="M6.764 1.448C2.9-1.446 1.454.72 1.152 1.746l-.007.025C.682 3.34.505 3.94.09 5.748c-.657 2.872 2.36 3.715 4.983 3.915.168.017.305.026.397.033l.113.008c.172.02.196.168.158.279-.011.035-.04.118-.2.21l-.05.028s-2.294 1.211-2.337 2.446c-.032.918 1.03 1.69 1.97 2.033l.012.004.003.001.004.002.005.002.003.001c.063.024.128.047.197.069 2.456.769 4.976-2.167 5.687-3.79.71-1.624.546-3.337.11-4.284-.278-.605-1.737-3.572-4.382-5.257zm9.497.647c.938-.954 1.781-1.53 2.191-1.393 1.05.352.987 2.16.109 4.582-.699 1.926-2.73 3.64-3.284 3.97a.174.174 0 0 0-.082.095c-.052.164.091.238.275.331.349.179.842.431.406 1.523-.692 1.734-2.193 2.732-3.362 2.349-.571-.188-.726-.95-.684-1.871a7.24 7.24 0 0 1 .064-.603c.052-.374.124-.748.21-1.115l.076-.32.138-.553c.586-2.22 2.002-5.024 3.943-6.995zm50.492 17.351h2.436V2.825h-2.436v16.621zM32.79 19.42h-2.479V8.035h2.48V19.42zM31.54 6.555c.841 0 1.531-.729 1.531-1.617 0-.887-.69-1.616-1.53-1.616-.82 0-1.51.729-1.51 1.616 0 .888.69 1.617 1.51 1.617zm-9.702 4.304c0-.73.754-1.07 1.53-1.07 1.057 0 1.833.591 2.027 1.73l2.07-.296.064-.114c-.302-2.14-1.832-3.302-4.117-3.302-2.242 0-3.773 1.435-3.773 3.165 0 1.822 1.143 2.8 3.298 3.37 2.005.524 2.738.933 2.738 1.799 0 .865-.84 1.366-1.854 1.366-1.574 0-2.242-.774-2.5-1.935l-2.048.364-.043.136c.366 2.232 2.004 3.575 4.57 3.575 2.543 0 4.203-1.617 4.203-3.734 0-1.799-1.164-2.71-3.363-3.325-1.961-.569-2.802-.955-2.802-1.73zm16.268-1.48c.84-.98 1.919-1.571 3.234-1.571 1.38 0 2.198.591 2.694 1.616 1.014-1.047 2.177-1.616 3.514-1.616 2.22 0 3.32 1.365 3.32 3.37v8.241H48.41v-7.582c0-1.07-.496-1.753-1.573-1.753-.97 0-1.747.546-2.35 1.526v7.81h-2.458v-7.537c0-1.093-.452-1.799-1.53-1.799-.97 0-1.811.752-2.393 1.685v7.65H35.65V8.035h2.457v1.343zm18.038 3.506c0-1.64 1.293-2.846 2.867-2.846 1.703 0 3.082 1.184 3.082 3.688 0 2.505-1.38 3.689-3.06 3.689-1.596 0-2.889-1.23-2.889-2.869v-1.662zm0-4.85h-2.48v15.938h2.48V18.35c.776.797 1.961 1.298 3.276 1.298 2.76 0 5.152-2.095 5.152-5.92 0-3.825-2.457-5.92-4.98-5.92-1.637 0-2.758.706-3.448 1.48V8.035zm33.131 1.12c2.306 0 3.578 1.616 3.578 4.599s-1.422 4.6-3.578 4.6c-2.09 0-3.449-1.913-3.449-3.53V12.82c0-1.799 1.143-3.665 3.45-3.665zM84.49 8.062V24h1.337v-6.148c.82 1.162 2.07 1.822 3.622 1.822 2.716 0 4.742-2.118 4.742-5.92s-2.004-5.92-4.656-5.92a4.52 4.52 0 0 0-3.708 1.844V8.062H84.49zm13.12 0v1.707c.539-.956 1.703-1.935 3.061-1.935.452 0 .733.068.926.182l-.236 1.207c-.173-.046-.388-.068-.755-.068-1.164 0-2.414 1.002-2.996 2.481v7.81h-1.337V8.062h1.337zm8.74 5.851l2.954-.318v2.481c-.949 1.435-2.134 2.277-3.557 2.277-1.294 0-2.134-.865-2.134-2.072 0-1.388 1.078-2.186 2.737-2.368zm4.764 5.67c.301 0 .69-.046 1.035-.228v-1.138c-.216.068-.389.09-.561.09-.647 0-.949-.455-.949-1.183v-5.26c0-2.505-1.465-4.03-3.966-4.03-1.682 0-3.643.956-3.837 3.46h1.336c.151-1.32 1.1-2.14 2.458-2.14 1.767 0 2.673.889 2.673 2.756v.478l-3.341.364c-1.941.205-3.686 1.298-3.686 3.53 0 2.026 1.25 3.392 3.298 3.392 1.703 0 2.888-.956 3.729-1.936.086.957.69 1.845 1.811 1.845zm7.667-1.23c2.134 0 3.147-1.047 3.622-2.846h1.271c-.28 2.46-2.177 4.167-4.936 4.167-3.083 0-5.282-2.368-5.282-5.92s2.199-5.92 5.282-5.92c2.824 0 4.548 1.525 4.936 4.167h-1.271c-.389-1.776-1.596-2.846-3.622-2.846-2.285 0-3.988 1.844-3.988 4.599s1.703 4.6 3.988 4.6zm9.644-10.291V5.17l-1.337-.524v3.416h-2.026v1.184h2.026v7.764c0 1.503.734 2.664 2.372 2.664.474 0 .905-.046 1.444-.228v-1.161c-.409.137-.625.205-1.034.205-.927 0-1.445-.478-1.445-1.685v-7.56h2.479V8.063h-2.479zm5.145 11.384h1.336V8.062h-1.336v11.384zm.668-15.574c.56 0 1.035.501 1.035 1.093s-.475 1.093-1.035 1.093c-.56 0-1.035-.501-1.035-1.093s.475-1.093 1.035-1.093zm12.355 11.635c-.474 1.799-1.487 2.846-3.621 2.846-2.285 0-3.988-1.844-3.988-4.6 0-2.754 1.703-4.598 3.988-4.598 2.026 0 3.233 1.07 3.621 2.846h1.272c-.388-2.642-2.112-4.167-4.936-4.167-3.083 0-5.282 2.368-5.282 5.92s2.199 5.92 5.282 5.92c2.759 0 4.656-1.708 4.936-4.167h-1.272zm4.757-2.664h7.2c-.043-2.026-1.466-3.688-3.557-3.688-2.09 0-3.427 1.548-3.643 3.688zm0 1.184c.043 2.596 1.531 4.326 3.687 4.326 2.069 0 2.866-1.252 3.233-2.527h1.337c-.539 2.3-2.027 3.848-4.592 3.848-3.04 0-5.131-2.368-5.131-5.92s2.286-5.92 5.109-5.92c2.803 0 4.894 2.05 4.894 5.51v.683h-8.537zM79.646 12.57c-.151-1.685-1.402-2.619-2.932-2.619-1.466 0-2.673.957-2.953 2.619h5.885zm-2.888 4.895c1.34 0 2.202-.612 2.655-1.575h2.333c-.743 2.436-2.486 3.784-5.031 3.784-3.234 0-5.39-2.368-5.39-5.92s2.523-5.92 5.39-5.92c3.04 0 5.238 2.163 5.238 5.829v.797h-8.235c.108 1.867 1.315 3.005 3.04 3.005z" />
    </symbol>

    <!-- p-logo-butterfly  -->
    <symbol id="sp-logo-butterfly" viewBox="0 0 30 24">
      <g fill="#3472AD" fillRule="evenodd">
        <path
          d="M28.767 2.029c-.649-.212-1.985.677-3.472 2.15-3.076 3.044-5.321 7.374-6.25 10.802l-.22.855-.119.493a18.55 18.55 0 00-.333 1.723c-.053.37-.09.692-.102.93-.067 1.423.18 2.6 1.085 2.89 1.852.591 4.231-.95 5.33-3.628 1.053-2.572-1.321-2.127-1.08-2.863a.27.27 0 01.129-.146c.878-.511 4.098-3.157 5.205-6.132 1.392-3.74 1.492-6.532-.173-7.074M10.721 2.866c-6.126-4.4-8.415-1.105-8.895.453C1.084 5.733.805 6.64.145 9.406c-1.042 4.367 3.739 5.649 7.897 5.954.42.04.715.052.809.062.273.03.31.255.25.424-.018.053-.064.18-.316.32l-.08.042S5.068 18.05 5 19.928c-.05 1.395 1.634 2.57 3.123 3.09l.024.01.015.005.004.001c.1.037.203.073.313.105 3.892 1.17 7.886-3.296 9.013-5.764 1.127-2.469.865-5.074.174-6.514-.44-.92-2.753-5.432-6.945-7.995" />
      </g>
    </symbol>

    <!-- sp-logo-white not working -->
    <symbol id="sp-logo-white" width="165" height="24">
      <mask id="a" maskUnits="userSpaceOnUse" x="0" y="0" width="165" height="24">
        <path fillRule="evenodd" clipRule="evenodd"
          d="M6.971 1.448C2.988-1.446 1.499.72 1.187 1.746l-.007.025C.703 3.34.52 3.94.094 5.748-.583 8.62 2.525 9.463 5.23 9.663c.173.017.314.026.41.033l.116.008c.177.02.202.168.163.279-.012.035-.042.118-.206.21l-.052.028s-2.365 1.211-2.409 2.446c-.033.918 1.062 1.69 2.03 2.033l.016.005.004.002.006.002.003.001c.065.024.132.047.203.069 2.53.769 5.128-2.167 5.86-3.79.733-1.624.563-3.337.114-4.284C11.2 6.1 9.697 3.133 6.97 1.448zm9.787.647c.967-.954 1.836-1.53 2.258-1.393 1.082.352 1.017 2.16.112 4.582-.72 1.926-2.813 3.64-3.384 3.97a.176.176 0 00-.084.095c-.054.164.094.238.283.331.36.179.868.431.419 1.523-.714 1.734-2.26 2.732-3.465 2.349-.589-.188-.749-.95-.705-1.871.007-.155.031-.363.066-.603.054-.374.128-.748.217-1.115l.077-.32.143-.553c.604-2.22 2.063-5.024 4.063-6.995zm52.037 17.351h2.51V2.825h-2.51v16.621zm-35.002-.027h-2.555V8.035h2.555V19.42zM32.505 6.555c.866 0 1.577-.729 1.577-1.617 0-.887-.71-1.616-1.577-1.616-.844 0-1.555.729-1.555 1.616 0 .888.71 1.617 1.555 1.617zm-10 4.303c0-.728.778-1.07 1.578-1.07 1.089 0 1.888.592 2.088 1.73l2.133-.295.067-.114c-.311-2.14-1.889-3.302-4.243-3.302-2.311 0-3.888 1.435-3.888 3.165 0 1.822 1.177 2.8 3.399 3.37 2.066.524 2.821.933 2.821 1.799 0 .865-.866 1.366-1.91 1.366-1.622 0-2.311-.774-2.577-1.935l-2.111.364-.044.136c.377 2.232 2.066 3.575 4.71 3.575 2.62 0 4.332-1.617 4.332-3.734 0-1.799-1.2-2.71-3.466-3.325-2.022-.569-2.888-.955-2.888-1.73zm16.767-1.48c.866-.979 1.977-1.57 3.332-1.57 1.422 0 2.266.591 2.777 1.616 1.044-1.047 2.243-1.616 3.62-1.616 2.289 0 3.422 1.365 3.422 3.37v8.241H49.89v-7.582c0-1.07-.512-1.753-1.622-1.753-1 0-1.8.546-2.422 1.526v7.81h-2.533v-7.537c0-1.093-.466-1.799-1.577-1.799-1 0-1.866.752-2.465 1.685v7.65h-2.533V8.035h2.533v1.343zm18.589 3.507c0-1.64 1.332-2.846 2.954-2.846 1.755 0 3.177 1.184 3.177 3.688 0 2.505-1.422 3.689-3.155 3.689-1.644 0-2.976-1.23-2.976-2.869v-1.662zm0-4.85h-2.555v15.938h2.555V18.35c.8.797 2.021 1.298 3.376 1.298 2.844 0 5.31-2.095 5.31-5.92 0-3.825-2.533-5.92-5.132-5.92-1.688 0-2.843.706-3.554 1.48V8.035zm34.144 1.12c2.377 0 3.688 1.616 3.688 4.599s-1.466 4.6-3.688 4.6c-2.155 0-3.554-1.913-3.554-3.53V12.82c0-1.799 1.177-3.665 3.554-3.665zm-4.932-1.093V24h1.378v-6.148c.844 1.162 2.132 1.822 3.732 1.822 2.8 0 4.887-2.118 4.887-5.92s-2.066-5.92-4.798-5.92c-1.844 0-3.11.91-3.821 1.844V8.062h-1.378zm13.52 0v1.707c.556-.956 1.756-1.935 3.155-1.935.467 0 .756.068.955.182l-.244 1.207c-.178-.046-.4-.068-.777-.068-1.2 0-2.489 1.002-3.089 2.481v7.81h-1.377V8.062h1.377zm9.008 5.851l3.044-.318v2.481c-.978 1.435-2.199 2.277-3.666 2.277-1.333 0-2.199-.865-2.199-2.072 0-1.388 1.111-2.186 2.821-2.368zm4.909 5.67c.311 0 .712-.046 1.067-.228v-1.138c-.222.068-.4.09-.578.09-.666 0-.977-.455-.977-1.183v-5.26c0-2.505-1.511-4.03-4.088-4.03-1.733 0-3.755.956-3.954 3.46h1.377c.155-1.32 1.133-2.14 2.533-2.14 1.821 0 2.754.889 2.754 2.756v.478l-3.443.364c-2 .205-3.799 1.298-3.799 3.53 0 2.026 1.289 3.392 3.399 3.392 1.755 0 2.977-.956 3.843-1.936.089.957.711 1.845 1.866 1.845zm7.902-1.23c2.199 0 3.244-1.047 3.732-2.846h1.311c-.289 2.46-2.244 4.167-5.087 4.167-3.177 0-5.443-2.368-5.443-5.92s2.266-5.92 5.443-5.92c2.91 0 4.687 1.525 5.087 4.167h-1.311c-.4-1.776-1.644-2.846-3.732-2.846-2.355 0-4.11 1.844-4.11 4.599s1.755 4.6 4.11 4.6zm9.939-10.291V5.17l-1.377-.524v3.416h-2.089v1.184h2.089v7.764c0 1.503.755 2.664 2.444 2.664.488 0 .933-.046 1.488-.228v-1.161c-.422.137-.644.205-1.066.205-.955 0-1.489-.478-1.489-1.685v-7.56h2.555V8.063h-2.555zm5.302 11.384h1.378V8.062h-1.378v11.384zm.689-15.574c.577 0 1.066.501 1.066 1.093s-.489 1.093-1.066 1.093c-.578 0-1.067-.501-1.067-1.093s.489-1.093 1.067-1.093zm12.733 11.635c-.489 1.799-1.533 2.846-3.733 2.846-2.354 0-4.109-1.844-4.109-4.6 0-2.754 1.755-4.598 4.109-4.598 2.089 0 3.333 1.07 3.733 2.846h1.31c-.399-2.642-2.177-4.167-5.087-4.167-3.177 0-5.443 2.368-5.443 5.92s2.266 5.92 5.443 5.92c2.844 0 4.799-1.708 5.087-4.167h-1.31zm4.902-2.664h7.42c-.044-2.026-1.511-3.688-3.665-3.688-2.155 0-3.533 1.548-3.755 3.688zm0 1.184c.045 2.596 1.577 4.326 3.8 4.326 2.132 0 2.954-1.252 3.332-2.527h1.377c-.555 2.3-2.088 3.848-4.732 3.848-3.133 0-5.287-2.368-5.287-5.92s2.355-5.92 5.265-5.92c2.888 0 5.043 2.05 5.043 5.51v.683h-8.798zM82.081 12.57c-.156-1.685-1.444-2.619-3.021-2.619-1.511 0-2.755.957-3.044 2.619h6.065zm-2.976 4.895c1.382 0 2.269-.612 2.736-1.575h2.405c-.766 2.436-2.562 3.784-5.186 3.784-3.332 0-5.554-2.368-5.554-5.92s2.6-5.92 5.554-5.92c3.133 0 5.399 2.163 5.399 5.829v.797h-8.487c.112 1.867 1.356 3.005 3.133 3.005z"
          fill="#fff" />
      </mask>
      <g mask="url(#a)">
        <path fillRule="evenodd" clipRule="evenodd"
          d="M19.016.703c-.422-.137-1.29.438-2.258 1.392-2 1.972-3.46 4.775-4.063 6.995l-.143.554-.077.319c-.09.368-.163.74-.217 1.115-.034.24-.058.449-.066.603-.044.921.116 1.684.705 1.871 1.204.383 2.751-.615 3.465-2.35.685-1.664-.858-1.376-.702-1.853a.176.176 0 01.084-.094c.57-.332 2.665-2.045 3.385-3.971.905-2.422.97-4.23-.113-4.581zM6.971 1.448C2.988-1.446 1.499.72 1.187 1.746.705 3.333.523 3.929.094 5.748-.583 8.62 2.525 9.463 5.23 9.663c.273.027.465.035.526.041.177.02.202.168.163.279-.012.035-.042.118-.206.21l-.052.028s-2.365 1.211-2.409 2.446c-.033.918 1.062 1.69 2.03 2.033l.016.005.01.004.003.001c.065.024.132.047.203.069 2.53.769 5.128-2.167 5.86-3.79.733-1.624.563-3.337.114-4.284C11.2 6.1 9.697 3.133 6.97 1.448z"
          fill="#fff" />
        <path fill="#fff" d="M0 0h165.395v23.776H0z" />
      </g>
    </symbol>

    <!-- pci-compliance -->
    <symbol id="pci-compliance" width="103" height="28" viewBox="0 0 103 28" fill="none"
      xmlns="http://www.w3.org/2000/svg">
      <path
        d="M48.3201 13.5514H50.8027V8.47429H52.6692C55.5251 8.47429 57.5597 7.22368 57.5597 4.40514V4.33047C57.5597 1.5306 55.5998 0.205324 52.6132 0.205324H48.3201V13.5514ZM50.8027 6.68237V2.12791H52.6132C54.1998 2.12791 55.1331 2.74388 55.1331 4.33047V4.40514C55.1331 5.87974 54.2558 6.68237 52.6132 6.68237H50.8027ZM65.6281 13.7381C68.8013 13.7381 71.0785 12.1141 71.4705 8.9036H69.0439C68.7826 10.7889 67.476 11.7221 65.6281 11.7221C63.1642 11.7221 61.7269 9.94889 61.7269 6.94369V6.79437C61.7269 3.80783 63.2575 1.97858 65.6094 1.97858C67.532 1.97858 68.5213 2.8932 68.8013 4.66646H71.3211C71.0225 1.5306 68.6519 0 65.5907 0C61.8762 0 59.1137 2.79988 59.1137 6.81303V6.96236C59.1137 11.0688 61.4469 13.7381 65.6281 13.7381ZM73.6957 13.5514H76.1969V0.205324H73.6957V13.5514ZM51.2133 26.1073C53.1172 26.1073 54.4836 25.1329 54.7188 23.2066H53.2628C53.106 24.3378 52.3221 24.8977 51.2133 24.8977C49.735 24.8977 48.8726 23.8338 48.8726 22.0307V21.9411C48.8726 20.1492 49.791 19.0516 51.2021 19.0516C52.3557 19.0516 52.9492 19.6004 53.1172 20.6643H54.6292C54.45 18.7828 53.0276 17.8645 51.1909 17.8645C48.9622 17.8645 47.3047 19.5444 47.3047 21.9523V22.0419C47.3047 24.5058 48.7046 26.1073 51.2133 26.1073ZM58.5176 25.0545C57.4873 25.0545 56.8937 24.3042 56.8937 23.1058V23.0162C56.8937 21.8067 57.5097 21.0787 58.5176 21.0787C59.5256 21.0787 60.1304 21.8179 60.1304 23.0274V23.1058C60.1304 24.3042 59.5256 25.0545 58.5176 25.0545ZM58.5064 26.1073C60.2312 26.1073 61.5191 24.9201 61.5191 23.0946V23.005C61.5191 21.2131 60.2312 20.0148 58.5176 20.0148C56.7929 20.0148 55.505 21.2243 55.505 23.0386V23.1282C55.505 24.9089 56.7817 26.1073 58.5064 26.1073ZM62.7436 25.9953H64.0987V22.4898C64.0987 21.5939 64.7147 21.1459 65.3867 21.1459C66.0474 21.1459 66.4282 21.5155 66.4282 22.3778V25.9953H67.7834V22.4898C67.7834 21.5939 68.3993 21.1459 69.0713 21.1459C69.7433 21.1459 70.1128 21.5155 70.1128 22.3778V25.9953H71.468V22.2883C71.468 20.6755 70.5944 20.0148 69.5193 20.0148C68.7913 20.0148 67.9849 20.3395 67.537 21.0675C67.2458 20.3395 66.641 20.0148 65.8794 20.0148C65.0171 20.0148 64.3787 20.4851 64.0987 21.0339V20.1379H62.7436V25.9953ZM73.0245 28H74.3796V25.0769C74.6932 25.6481 75.3652 26.1073 76.2947 26.1073C77.8067 26.1073 78.893 24.9649 78.893 23.0834V22.9938C78.893 21.1011 77.7619 20.0148 76.2947 20.0148C75.4324 20.0148 74.7044 20.5187 74.3796 21.0787V20.1379H73.0245V28ZM75.9587 25.0321C74.9732 25.0321 74.3348 24.4162 74.3348 23.1058V23.0162C74.3348 21.7171 75.0068 21.0787 75.9475 21.0787C76.8323 21.0787 77.5043 21.7171 77.5043 23.0162V23.1058C77.5043 24.3602 76.9555 25.0321 75.9587 25.0321ZM80.1451 25.9953H81.5003V17.4277H80.1451V25.9953ZM83.1857 25.9953H84.5408V20.1379H83.1857V25.9953ZM83.8464 19.1748C84.2944 19.1748 84.6528 18.8388 84.6528 18.402C84.6528 17.954 84.2944 17.6181 83.8464 17.6181C83.3984 17.6181 83.0401 17.954 83.0401 18.402C83.0401 18.8388 83.3984 19.1748 83.8464 19.1748ZM87.7269 26.1073C88.6229 26.1073 89.1381 25.7825 89.5188 25.2785V25.9953H90.8516V22.1539C90.8516 20.5523 89.8212 20.0148 88.5109 20.0148C87.2006 20.0148 86.1142 20.5859 86.0022 21.9523H87.3125C87.3797 21.3699 87.7269 21.0339 88.4325 21.0339C89.2277 21.0339 89.4964 21.4259 89.4964 22.2099V22.5122H88.7685C87.0886 22.5122 85.767 23.005 85.767 24.3714C85.767 25.5921 86.6518 26.1073 87.7269 26.1073ZM88.0517 25.1329C87.3797 25.1329 87.111 24.8081 87.111 24.3154C87.111 23.5986 87.7717 23.3634 88.8021 23.3634H89.4964V23.9458C89.4964 24.6961 88.8805 25.1329 88.0517 25.1329ZM92.4048 25.9953H93.76V22.5458C93.76 21.6163 94.3759 21.1459 95.1375 21.1459C95.9439 21.1459 96.3023 21.5491 96.3023 22.4338V25.9953H97.6574V22.3107C97.6574 20.6979 96.8286 20.0148 95.6527 20.0148C94.6895 20.0148 94.04 20.4963 93.76 21.0675V20.1379H92.4048V25.9953ZM101.212 26.0961C101.627 26.0961 101.918 26.0289 102.13 25.9505V24.8753C101.94 24.9537 101.739 24.9873 101.47 24.9873C101.044 24.9873 100.798 24.7521 100.798 24.237V21.1571H102.086V20.1379H100.798V18.85H99.4426V20.1379H98.6586V21.1571H99.4426V24.3602C99.4426 25.4689 100.047 26.0961 101.212 26.0961Z"
        fill="#747474" />
      <path fillRule="evenodd" clipRule="evenodd"
        d="M6.40736 19.07L9.00288 25.9952L31.9811 19.07H31.6528V9.65292H35.1819V18.1053L40.5131 16.4986L33.0107 0.111938L0 1.97404L5.98561 17.9448V6.19581H11.1173C14.8265 6.19581 16.411 7.85234 16.411 10.6072V10.6792C16.411 13.3621 14.6284 14.8746 11.2973 14.8746H10.0549V19.07H6.40736ZM10.0549 9.23879V12.1377H10.9012C11.9816 12.1377 12.5397 11.6516 12.5397 10.6973V10.6252C12.5397 9.63493 11.9816 9.23879 10.9192 9.23879H10.0549ZM30.3984 14.1364C30.1822 17.5214 27.6974 19.3039 24.2945 19.3039C19.6489 19.3039 17.4522 16.6571 17.4522 12.7139V12.5699C17.4522 8.59058 20.3152 5.99775 24.1143 5.99775C27.5894 5.99775 29.9303 7.58226 30.2364 11.0754H26.0229C25.897 9.88699 25.2668 9.22079 24.1324 9.22079C22.6558 9.22079 21.7557 10.3731 21.7557 12.5518V12.6959C21.7557 14.8386 22.6198 16.027 24.2044 16.027C25.3567 16.027 26.1849 15.4328 26.329 14.1364H30.3984ZM35.326 7.16812C35.326 8.19445 34.4977 8.95069 33.4173 8.95069C32.319 8.95069 31.4908 8.19445 31.4908 7.16812C31.4908 6.12378 32.319 5.36754 33.4173 5.36754C34.4977 5.36754 35.326 6.12378 35.326 7.16812Z"
        fill="#747474" />
    </symbol>

    <!-- hipaa -->
    <symbol id="hipaa" width="91" height="28" viewBox="0 0 91 28" fill="#747474" xmlns="http://www.w3.org/2000/svg">
      <g clipPath="url(#clip0)">
        <path
          d="M38.6093 13.4785H40.9681V8.08701H46.6611V13.4785H49.0376V0.797852H46.6611V6.18934H40.9681V0.797852H38.6093V13.4785Z" />
        <path d="M51.999 13.4785H54.3755V0.797852H51.999V13.4785Z" />
        <path
          d="M57.3664 13.4785H59.7251V8.65453H61.4986C64.2121 8.65453 66.1453 7.46628 66.1453 4.78827V4.71732C66.1453 2.05705 64.2831 0.797852 61.4454 0.797852H57.3664V13.4785ZM59.7251 6.95196V2.62457H61.4454C62.9529 2.62457 63.8397 3.20983 63.8397 4.71732V4.78827C63.8397 6.18934 63.0061 6.95196 61.4454 6.95196H59.7251Z" />
        <path
          d="M66.315 13.4785H68.5319L69.5251 10.3394H74.3668L75.3777 13.4785H77.8251L73.6396 0.797852H70.5537L66.315 13.4785ZM71.9548 2.73099L73.817 8.61906H70.0748L71.9548 2.73099Z" />
        <path
          d="M78.8716 13.4785H81.0885L82.0817 10.3394H86.9234L87.9343 13.4785H90.3818L86.1963 0.797852H83.1103L78.8716 13.4785ZM84.5114 2.73099L86.3736 8.61906H82.6315L84.5114 2.73099Z" />
        <path
          d="M41.3583 25.4084C43.1673 25.4084 44.4655 24.4826 44.6889 22.6523H43.3056C43.1566 23.7271 42.4117 24.2591 41.3583 24.2591C39.9537 24.2591 39.1343 23.2482 39.1343 21.535V21.4499C39.1343 19.7473 40.0069 18.7045 41.3476 18.7045C42.4437 18.7045 43.0076 19.2259 43.1673 20.2368H44.6038C44.4336 18.4491 43.0821 17.5765 41.337 17.5765C39.2194 17.5765 37.6445 19.1727 37.6445 21.4605V21.5456C37.6445 23.8867 38.9747 25.4084 41.3583 25.4084Z" />
        <path
          d="M48.2985 24.4081C47.3195 24.4081 46.7556 23.6951 46.7556 22.5565V22.4714C46.7556 21.3222 47.3408 20.6305 48.2985 20.6305C49.2562 20.6305 49.8308 21.3328 49.8308 22.4821V22.5565C49.8308 23.6951 49.2562 24.4081 48.2985 24.4081ZM48.2879 25.4084C49.9266 25.4084 51.1503 24.2804 51.1503 22.5459V22.4608C51.1503 20.7582 49.9266 19.6196 48.2985 19.6196C46.6598 19.6196 45.4361 20.7688 45.4361 22.4927V22.5778C45.4361 24.2698 46.6492 25.4084 48.2879 25.4084Z" />
        <path
          d="M52.3137 25.3019H53.6013V21.9713C53.6013 21.12 54.1865 20.6944 54.825 20.6944C55.4528 20.6944 55.8146 21.0455 55.8146 21.8649V25.3019H57.1022V21.9713C57.1022 21.12 57.6875 20.6944 58.3259 20.6944C58.9644 20.6944 59.3156 21.0455 59.3156 21.8649V25.3019H60.6031V21.7797C60.6031 20.2474 59.7731 19.6196 58.7516 19.6196C58.0599 19.6196 57.2937 19.9282 56.8681 20.6199C56.5914 19.9282 56.0168 19.6196 55.2932 19.6196C54.4739 19.6196 53.8673 20.0665 53.6013 20.5879V19.7367H52.3137V25.3019Z" />
        <path
          d="M62.0819 27.2067H63.3695V24.4294C63.6674 24.9721 64.3059 25.4084 65.1891 25.4084C66.6257 25.4084 67.6579 24.323 67.6579 22.5353V22.4501C67.6579 20.6518 66.5831 19.6196 65.1891 19.6196C64.3697 19.6196 63.6781 20.0984 63.3695 20.6305V19.7367H62.0819V27.2067ZM64.8699 24.3868C63.9335 24.3868 63.3269 23.8016 63.3269 22.5565V22.4714C63.3269 21.237 63.9654 20.6305 64.8592 20.6305C65.6999 20.6305 66.3384 21.237 66.3384 22.4714V22.5565C66.3384 23.7483 65.8169 24.3868 64.8699 24.3868Z" />
        <path d="M68.8477 25.3019H70.1352V17.1615H68.8477V25.3019Z" />
        <path
          d="M71.7366 25.3019H73.0241V19.7367H71.7366V25.3019ZM72.3644 18.8215C72.79 18.8215 73.1305 18.5023 73.1305 18.0873C73.1305 17.6616 72.79 17.3424 72.3644 17.3424C71.9387 17.3424 71.5982 17.6616 71.5982 18.0873C71.5982 18.5023 71.9387 18.8215 72.3644 18.8215Z" />
        <path
          d="M76.0514 25.4084C76.9026 25.4084 77.3921 25.0998 77.7539 24.6209V25.3019H79.0202V21.6521C79.0202 20.1304 78.0412 19.6196 76.7962 19.6196C75.5512 19.6196 74.519 20.1623 74.4126 21.4605H75.6576C75.7215 20.9072 76.0514 20.5879 76.7217 20.5879C77.4773 20.5879 77.7326 20.9604 77.7326 21.7053V21.9926H77.041C75.4448 21.9926 74.1892 22.4608 74.1892 23.759C74.1892 24.9189 75.0298 25.4084 76.0514 25.4084ZM76.3599 24.4826C75.7215 24.4826 75.4661 24.174 75.4661 23.7058C75.4661 23.0248 76.0939 22.8013 77.0729 22.8013H77.7326V23.3546C77.7326 24.0676 77.1474 24.4826 76.3599 24.4826Z" />
        <path
          d="M80.496 25.3019H81.7836V22.0245C81.7836 21.1413 82.3688 20.6944 83.0924 20.6944C83.8586 20.6944 84.1991 21.0774 84.1991 21.9181V25.3019H85.4867V21.801C85.4867 20.2687 84.6992 19.6196 83.5819 19.6196C82.6668 19.6196 82.0496 20.0772 81.7836 20.6199V19.7367H80.496V25.3019Z" />
        <path
          d="M88.8642 25.3977C89.2579 25.3977 89.5345 25.3339 89.7367 25.2594V24.2378C89.5558 24.3123 89.3643 24.3442 89.1089 24.3442C88.7045 24.3442 88.4704 24.1208 88.4704 23.6313V20.705H89.6942V19.7367H88.4704V18.5129H87.1829V19.7367H86.438V20.705H87.1829V23.7483C87.1829 24.8018 87.7575 25.3977 88.8642 25.3977Z" />
        <path
          d="M17.0373 16.9962C17.6168 16.7411 18.1063 16.5406 18.5792 16.3087C18.7941 16.2027 19.0405 16.0519 18.9939 15.762C18.9556 15.5201 18.7225 15.4191 18.506 15.3528C17.5035 15.048 16.4977 14.7481 15.4919 14.4516C14.223 14.0788 12.9675 13.6713 11.8984 12.8644C10.8476 12.0725 10.0383 11.1067 10.0133 9.71839C9.9867 8.20749 10.781 7.14555 12.0699 6.45968C13.0241 5.95107 14.8958 6.80593 15.2621 7.84136C15.3987 8.22737 15.1789 8.37316 14.8708 8.46593C14.263 8.64651 13.6402 8.66473 13.0107 8.62994C11.9733 8.57362 11.5337 9.15677 11.8817 10.1442C12.1082 10.787 12.6144 11.1945 13.1673 11.5457C14.233 12.22 15.4187 12.6193 16.6093 13.0053C17.6068 13.33 18.6142 13.6348 19.5268 14.1666C21.1004 15.0828 21.1254 16.5738 19.605 17.5959C19.2753 17.8179 18.9956 17.8676 18.6242 17.6705C18.1563 17.422 17.6451 17.2497 17.0373 16.9962Z" />
        <path
          d="M18.2046 2.50693C18.2196 3.12819 17.9964 3.66827 17.4752 3.99629C17.0889 4.23983 17.0223 4.54134 17.0173 4.93895C16.9856 7.22684 16.9507 9.51473 16.8891 11.8026C16.8824 12.0544 17.0856 12.5299 16.6343 12.5332C16.1747 12.5349 15.7983 12.3477 15.8017 11.6817C15.815 9.43852 15.7317 7.19536 15.7051 4.95055C15.7001 4.52312 15.6152 4.23154 15.2255 3.95819C14.5161 3.45952 14.3363 2.44729 14.7209 1.67858C15.0956 0.929756 15.9332 0.520553 16.7292 0.697819C17.6284 0.894965 18.2013 1.59906 18.2046 2.50693Z" />
        <path
          d="M17.249 12.6898C18.3114 12.2425 19.2456 11.8664 20.0249 11.2153C20.5145 10.8078 20.9192 10.3439 20.9358 9.65802C20.9541 8.89595 20.6611 8.58283 19.8967 8.62425C19.2673 8.65904 18.6428 8.65738 18.0317 8.51159C17.3389 8.34758 17.2524 8.02618 17.712 7.48113C18.6378 6.37943 19.7335 6.00336 20.6994 6.45895C22.0648 7.10175 23.0024 8.82305 22.6943 10.1964C22.3413 11.7753 21.2356 12.7395 19.8701 13.4701C19.7235 13.5479 19.5703 13.5479 19.4171 13.4916C18.7327 13.2381 18.0467 12.9847 17.249 12.6898Z" />
        <path
          d="M15.3671 14.9452C14.9291 15.1109 14.6044 15.2004 14.313 15.3528C13.7152 15.6609 13.7085 16.0188 14.2963 16.365C14.5811 16.5323 14.9008 16.6483 15.2139 16.7659C16.2563 17.1602 17.3404 17.4584 18.3245 17.9902C19.1888 18.4574 19.7283 19.145 19.685 20.182C19.6717 20.4786 19.5801 20.747 19.4152 20.9938C19.1621 21.3765 18.9323 21.6515 18.4444 21.2009C18.1547 20.9325 17.72 20.8182 17.3354 20.6277C17.5618 20.3577 18.1114 20.3775 18.0631 19.9302C18.0115 19.4398 17.5285 19.2941 17.1472 19.1466C16.1281 18.754 15.089 18.4094 14.0582 18.0466C13.3905 17.8113 12.8043 17.4584 12.3847 16.8786C11.8518 16.1414 11.9067 15.3031 12.4996 14.6951C12.8543 14.3306 13.2023 14.1517 13.7335 14.4101C14.2097 14.6387 14.7459 14.7481 15.3671 14.9452Z" />
        <path
          d="M15.697 19.0204C15.3023 19.3799 14.6146 19.4578 14.7295 20.021C14.846 20.5976 15.5038 20.6092 15.985 20.7401C16.5862 20.9024 17.2156 20.9654 17.7918 21.2188C18.8242 21.6711 19.0707 22.7629 18.353 23.626C18.1482 23.8729 17.9816 23.9623 17.7085 23.7039C17.5354 23.5399 17.2972 23.4421 17.0857 23.3179C16.9375 23.2317 16.8127 23.1621 17.0125 22.9849C17.4288 22.6138 17.1041 22.4382 16.7877 22.3504C16.1865 22.183 15.5721 22.0671 14.9643 21.9262C14.5263 21.8252 14.1033 21.6844 13.7353 21.421C12.7928 20.7483 12.7762 19.196 13.692 18.5118C13.8436 18.3991 13.9718 18.4157 14.125 18.4687C14.6279 18.6477 15.1308 18.8216 15.697 19.0204Z" />
        <path
          d="M18.18 25.2662C18.1317 25.9802 17.7754 26.5799 17.2741 27.1084C17.1659 27.2227 17.041 27.3569 16.8811 27.2045C16.7479 27.0769 16.5914 26.9792 16.678 26.7091C17.1093 25.3589 17.0194 25.1436 15.6972 24.5538C14.798 24.1512 14.027 23.694 14.0303 22.5575C14.0319 22.198 14.0786 22.0075 14.5132 22.1698C14.9645 22.3388 15.4491 22.2709 15.7355 22.8938C15.9569 23.3742 16.688 23.4952 17.1942 23.7685C17.792 24.0899 18.1667 24.5372 18.18 25.2662Z" />
        <path
          d="M17.2364 27.9997C15.8343 27.8737 14.5071 26.3976 14.5837 25.0657C14.6087 24.6217 14.6903 24.3848 15.2032 24.7062C15.6062 24.958 15.9592 25.1038 15.786 25.7283C15.6445 26.2403 16.0125 26.7041 16.3472 27.0968C16.6186 27.4148 16.935 27.6965 17.2364 27.9997Z" />
        <path
          d="M16.8366 16.0814C16.8249 16.9064 16.7417 16.9478 16.1588 16.7043C15.7325 16.527 15.8691 16.2238 15.8707 15.8097C15.8724 15.4684 15.8191 15.3011 16.0106 15.1387C16.1855 14.9913 16.8099 15.3143 16.8332 15.5545C16.8499 15.7301 16.8366 15.9058 16.8366 16.0814Z" />
        <path
          d="M16.7776 19.8984C16.7709 20.122 16.8325 20.5925 16.4745 20.5611C15.7968 20.4998 15.9966 20.0061 15.9766 19.6283C15.9683 19.4792 15.9799 19.1496 16.1748 19.1976C16.5894 19.297 16.7276 19.2191 16.7776 19.8984Z" />
        <path
          d="M13.9783 2.96382C13.8634 2.26304 13.5704 1.60202 13.1141 1.05697C12.6545 0.508604 11.9717 0 11.0192 0C8.95935 0 2.97787 3.17256 0.120351 2.77661C0.120351 2.77661 -0.544073 4.42999 1.24937 5.09101C3.04282 5.75203 6.29999 5.28981 6.29999 5.28981C6.29999 5.28981 7.89527 7.00946 10.0884 6.34678C11.8202 5.82493 12.5163 5.38425 13.4838 5.646C13.8951 5.757 14.2914 5.42566 14.2464 5.00321C14.1898 4.44822 14.1016 3.71761 13.9783 2.96382Z" />
        <path
          d="M18.7477 2.96382C18.8626 2.26304 19.1556 1.60202 19.6119 1.05697C20.0699 0.510261 20.7526 0 21.7051 0C23.765 0 29.7448 3.17256 32.6023 2.77661C32.6023 2.77661 33.2667 4.42999 31.4733 5.09101C29.6799 5.75203 26.4227 5.28981 26.4227 5.28981C26.4227 5.28981 24.8291 7.0078 22.6376 6.34678C20.9058 5.82493 20.2097 5.38425 19.2422 5.646C18.8309 5.757 18.4346 5.42566 18.4796 5.00321C18.5362 4.44822 18.6244 3.71761 18.7477 2.96382Z" />
      </g>
      <defs>
        <clipPath id="clip0">
          <rect width="91" height="28" fill="white" />
        </clipPath>
      </defs>
    </symbol>

    <!-- hi-trust-certified -->
    <symbol id="hi-trust-certified" width="72" height="28" viewBox="0 0 72 28" fill="none">
      <rect width="72" height="28" fill="white"></rect>
      <path
        d="M0.936393 13.4623H3.22574V8.22951H8.75115V13.4623H11.0577V1.15492H8.75115V6.38771H3.22574V1.15492H0.936393V13.4623Z"
        fill="#747474"></path>
      <path d="M13.9319 13.4623H16.2384V1.15492H13.9319V13.4623Z" fill="#747474"></path>
      <path d="M21.6028 13.4623H23.9093V2.9623H27.3347V1.15492H18.1773V2.9623H21.6028V13.4623Z" fill="#747474"></path>
      <path
        d="M29.1767 13.4623H31.466V8.48771H32.9291L36.148 13.4623H38.6267L35.1668 8.14344C36.6988 7.74754 37.9037 6.76639 37.9037 4.83852V4.76967C37.9037 2.25656 36.0103 1.15492 33.3078 1.15492H29.1767V13.4623ZM31.466 6.85246V2.92787H33.3078C34.7709 2.92787 35.6488 3.40984 35.6488 4.82131V4.89016C35.6488 6.19836 34.8398 6.85246 33.3078 6.85246H31.466Z"
        fill="#747474"></path>
      <path
        d="M45.0215 13.6344C48.2747 13.6344 50.0133 11.8615 50.0133 8.64262V1.15492H47.7067V8.45328C47.7067 11.0008 46.8116 11.7926 45.0387 11.7926C43.2141 11.7926 42.4911 10.8631 42.4911 8.6082V1.15492H40.1846V8.78033C40.1846 11.9475 41.9403 13.6344 45.0215 13.6344Z"
        fill="#747474"></path>
      <path
        d="M56.9098 13.6344C59.6295 13.6344 61.4369 11.9648 61.4369 9.83033C61.4369 7.36885 59.9393 6.54262 57.0475 6.14672C54.9131 5.83689 54.5 5.33771 54.5 4.33934C54.5 3.39262 55.2229 2.72131 56.6172 2.72131C58.0287 2.72131 58.7688 3.27213 58.9926 4.56312H61.0926C60.8516 2.20492 59.268 1 56.6172 1C54.0524 1 52.3311 2.51475 52.3311 4.52869C52.3311 6.83525 53.7254 7.73033 56.6688 8.12623C58.6655 8.45328 59.2336 8.88361 59.2336 10.0197C59.2336 11.1557 58.2696 11.9131 56.9098 11.9131C54.827 11.9131 54.3278 10.8803 54.1729 9.64098H51.9696C52.1418 11.9648 53.5533 13.6344 56.9098 13.6344Z"
        fill="#747474"></path>
      <path d="M65.7786 13.4623H68.0852V2.9623H71.5106V1.15492H62.3532V2.9623H65.7786V13.4623Z" fill="#747474"></path>
      <path
        d="M3.60443 25.041C5.36016 25.041 6.62016 24.1425 6.83705 22.3661H5.49443C5.34984 23.4092 4.62689 23.9256 3.60443 23.9256C2.24115 23.9256 1.4459 22.9444 1.4459 21.2816V21.199C1.4459 19.5466 2.29279 18.5344 3.5941 18.5344C4.65787 18.5344 5.20525 19.0405 5.36016 20.0216H6.75443C6.58918 18.2866 5.27754 17.4397 3.58377 17.4397C1.52852 17.4397 0 18.9889 0 21.2093V21.292C0 23.5641 1.29098 25.041 3.60443 25.041Z"
        fill="#747474"></path>
      <path
        d="M10.5366 25.041C12.1684 25.041 13.2528 24.0392 13.2528 22.7585C13.2528 21.2816 12.3543 20.7859 10.6192 20.5484C9.33857 20.3625 9.0907 20.063 9.0907 19.4639C9.0907 18.8959 9.52447 18.4931 10.361 18.4931C11.2079 18.4931 11.652 18.8236 11.7863 19.5982H13.0463C12.9017 18.1833 11.9515 17.4603 10.361 17.4603C8.82218 17.4603 7.78939 18.3692 7.78939 19.5775C7.78939 20.9615 8.62595 21.4985 10.392 21.7361C11.59 21.9323 11.9309 22.1905 11.9309 22.8721C11.9309 23.5538 11.3525 24.0082 10.5366 24.0082C9.28693 24.0082 8.98742 23.3885 8.89447 22.6449H7.57251C7.67578 24.0392 8.52267 25.041 10.5366 25.041Z"
        fill="#747474"></path>
      <path d="M14.5827 24.9377H15.9563V21.9116H18.4763V20.8479H15.9563V18.648H19.158V17.5533H14.5827V24.9377Z"
        fill="#747474"></path>
      <path
        d="M26.0454 25.041C27.8011 25.041 29.0611 24.1425 29.278 22.3661H27.9354C27.7908 23.4092 27.0678 23.9256 26.0454 23.9256C24.6821 23.9256 23.8868 22.9444 23.8868 21.2816V21.199C23.8868 19.5466 24.7337 18.5344 26.035 18.5344C27.0988 18.5344 27.6462 19.0405 27.8011 20.0216H29.1954C29.0301 18.2866 27.7185 17.4397 26.0247 17.4397C23.9694 17.4397 22.4409 18.9889 22.4409 21.2093V21.292C22.4409 23.5641 23.7319 25.041 26.0454 25.041Z"
        fill="#747474"></path>
      <path
        d="M32.74 25.041C34.1239 25.041 35.0431 24.4213 35.2187 23.2852H34.0103C33.9174 23.812 33.5249 24.1115 32.771 24.1115C31.8415 24.1115 31.3251 23.5331 31.2838 22.5107H35.2393V22.1492C35.2393 20.2179 34.031 19.4226 32.6883 19.4226C31.1495 19.4226 30.0031 20.538 30.0031 22.2111V22.2938C30.0031 23.9979 31.1495 25.041 32.74 25.041ZM31.3044 21.6741C31.4283 20.8375 31.9344 20.3315 32.6883 20.3315C33.4629 20.3315 33.938 20.7446 34 21.6741H31.3044Z"
        fill="#747474"></path>
      <path
        d="M36.3555 24.9377H37.6052V22.1285C37.6052 20.9821 38.2662 20.631 39.361 20.6207V19.4536C38.4521 19.4639 37.946 19.8667 37.6052 20.5484V19.5362H36.3555V24.9377Z"
        fill="#747474"></path>
      <path
        d="M42.3493 25.0307C42.7314 25.0307 42.9999 24.9687 43.1961 24.8964V23.9049C43.0206 23.9772 42.8347 24.0082 42.5868 24.0082C42.1943 24.0082 41.9671 23.7913 41.9671 23.3162V20.4761H43.1548V19.5362H41.9671V18.3485H40.7175V19.5362H39.9945V20.4761H40.7175V23.4298C40.7175 24.4523 41.2752 25.0307 42.3493 25.0307Z"
        fill="#747474"></path>
      <path
        d="M44.3543 24.9377H45.604V19.5362H44.3543V24.9377ZM44.9637 18.648C45.3768 18.648 45.7073 18.3382 45.7073 17.9354C45.7073 17.5223 45.3768 17.2125 44.9637 17.2125C44.5506 17.2125 44.2201 17.5223 44.2201 17.9354C44.2201 18.3382 44.5506 18.648 44.9637 18.648Z"
        fill="#747474"></path>
      <path
        d="M47.3441 24.9377H48.5938V20.4761H49.8228V19.5362H48.5938V18.7616C48.5938 18.2969 48.8003 17.9664 49.296 17.9664C49.5233 17.9664 49.6782 17.987 49.8228 18.049V17.0782C49.6265 17.0162 49.451 16.9852 49.1411 16.9852C47.9947 16.9852 47.3441 17.6256 47.3441 18.8133V19.5362H46.6108V20.4761H47.3441V24.9377Z"
        fill="#747474"></path>
      <path
        d="M50.7588 24.9377H52.0085V19.5362H50.7588V24.9377ZM51.3682 18.648C51.7813 18.648 52.1118 18.3382 52.1118 17.9354C52.1118 17.5223 51.7813 17.2125 51.3682 17.2125C50.955 17.2125 50.6245 17.5223 50.6245 17.9354C50.6245 18.3382 50.955 18.648 51.3682 18.648Z"
        fill="#747474"></path>
      <path
        d="M55.9071 25.041C57.291 25.041 58.2102 24.4213 58.3858 23.2852H57.1774C57.0845 23.812 56.692 24.1115 55.9381 24.1115C55.0086 24.1115 54.4922 23.5331 54.4509 22.5107H58.4064V22.1492C58.4064 20.2179 57.1981 19.4226 55.8555 19.4226C54.3166 19.4226 53.1702 20.538 53.1702 22.2111V22.2938C53.1702 23.9979 54.3166 25.041 55.9071 25.041ZM54.4715 21.6741C54.5955 20.8375 55.1015 20.3315 55.8555 20.3315C56.63 20.3315 57.1051 20.7446 57.1671 21.6741H54.4715Z"
        fill="#747474"></path>
      <path
        d="M61.5469 25.041C62.3422 25.041 63.0341 24.5659 63.3233 24.0289V24.9377H64.573V17.0369H63.3233V20.3625C63.0238 19.8254 62.4764 19.4226 61.5986 19.4226C60.194 19.4226 59.1715 20.5174 59.1715 22.2421V22.3248C59.1715 24.0805 60.194 25.041 61.5469 25.041ZM61.8568 24.0495C61.0512 24.0495 60.4522 23.4815 60.4522 22.2938V22.2111C60.4522 21.0441 60.9892 20.4038 61.9084 20.4038C62.8172 20.4038 63.3646 20.9925 63.3646 22.1802V22.2628C63.3646 23.4711 62.7243 24.0495 61.8568 24.0495Z"
        fill="#747474"></path>
    </symbol>

    <!-- hi-trust-certified-icon -->
    <symbol id="hi-trust-certified-icon" width="107" height="28" viewBox="0 0 107 28" fill="none">
      <path
        d="M36.0653 14.9184H38.3546V9.68556H43.8801V14.9184H46.1866V2.61097H43.8801V7.84376H38.3546V2.61097H36.0653V14.9184Z"
        fill="#747474"></path>
      <path d="M49.0608 14.9184H51.3674V2.61097H49.0608V14.9184Z" fill="#747474"></path>
      <path d="M56.7317 14.9184H59.0382V4.41835H62.4636V2.61097H53.3063V4.41835H56.7317V14.9184Z" fill="#747474"></path>
      <path
        d="M64.3056 14.9184H66.5949V9.94376H68.058L71.2769 14.9184H73.7556L70.2957 9.5995C71.8277 9.2036 73.0326 8.22245 73.0326 6.29458V6.22573C73.0326 3.71261 71.1392 2.61097 68.4367 2.61097H64.3056V14.9184ZM66.5949 8.30851V4.38392H68.4367C69.8998 4.38392 70.7777 4.86589 70.7777 6.27737V6.34622C70.7777 7.65442 69.9687 8.30851 68.4367 8.30851H66.5949Z"
        fill="#747474"></path>
      <path
        d="M80.1504 15.0905C83.4037 15.0905 85.1422 13.3175 85.1422 10.0987V2.61097H82.8356V9.90933C82.8356 12.4569 81.9405 13.2487 80.1676 13.2487C78.343 13.2487 77.62 12.3192 77.62 10.0643V2.61097H75.3135V10.2364C75.3135 13.4036 77.0692 15.0905 80.1504 15.0905Z"
        fill="#747474"></path>
      <path
        d="M92.0387 15.0905C94.7584 15.0905 96.5658 13.4208 96.5658 11.2864C96.5658 8.82491 95.0682 7.99868 92.1764 7.60278C90.042 7.29294 89.6289 6.79376 89.6289 5.7954C89.6289 4.84868 90.3518 4.17737 91.7461 4.17737C93.1576 4.17737 93.8977 4.72819 94.1215 6.01917H96.2215C95.9805 3.66097 94.3969 2.45605 91.7461 2.45605C89.1813 2.45605 87.46 3.97081 87.46 5.98474C87.46 8.2913 88.8543 9.18638 91.7977 9.58228C93.7945 9.90933 94.3625 10.3397 94.3625 11.4757C94.3625 12.6118 93.3986 13.3692 92.0387 13.3692C89.9559 13.3692 89.4567 12.3364 89.3018 11.097H87.0986C87.2707 13.4208 88.6822 15.0905 92.0387 15.0905Z"
        fill="#747474"></path>
      <path d="M100.908 14.9184H103.214V4.41835H106.639V2.61097H97.4821V4.41835H100.908V14.9184Z" fill="#747474"></path>
      <path
        d="M38.7333 26.497C40.4891 26.497 41.7491 25.5985 41.966 23.8221H40.6233C40.4787 24.8652 39.7558 25.3816 38.7333 25.3816C37.3701 25.3816 36.5748 24.4005 36.5748 22.7377V22.6551C36.5748 21.0026 37.4217 19.9905 38.723 19.9905C39.7868 19.9905 40.3342 20.4965 40.4891 21.4777H41.8833C41.7181 19.7426 40.4064 18.8957 38.7127 18.8957C36.6574 18.8957 35.1289 20.4449 35.1289 22.6654V22.748C35.1289 25.0202 36.4199 26.497 38.7333 26.497Z"
        fill="#747474"></path>
      <path
        d="M45.6655 26.497C47.2973 26.497 48.3817 25.4952 48.3817 24.2146C48.3817 22.7377 47.4832 22.242 45.7481 22.0044C44.4675 21.8185 44.2196 21.519 44.2196 20.92C44.2196 20.352 44.6534 19.9492 45.4899 19.9492C46.3368 19.9492 46.7809 20.2797 46.9152 21.0543H48.1752C48.0306 19.6393 47.0804 18.9164 45.4899 18.9164C43.9511 18.9164 42.9183 19.8252 42.9183 21.0336C42.9183 22.4175 43.7549 22.9546 45.5209 23.1921C46.719 23.3884 47.0598 23.6465 47.0598 24.3282C47.0598 25.0098 46.4814 25.4643 45.6655 25.4643C44.4158 25.4643 44.1163 24.8446 44.0234 24.101H42.7014C42.8047 25.4952 43.6516 26.497 45.6655 26.497Z"
        fill="#747474"></path>
      <path d="M49.7116 26.3938H51.0852V23.3677H53.6052V22.3039H51.0852V20.1041H54.2869V19.0093H49.7116V26.3938Z"
        fill="#747474"></path>
      <path
        d="M61.1743 26.497C62.93 26.497 64.19 25.5985 64.4069 23.8221H63.0643C62.9197 24.8652 62.1967 25.3816 61.1743 25.3816C59.811 25.3816 59.0157 24.4005 59.0157 22.7377V22.6551C59.0157 21.0026 59.8626 19.9905 61.1639 19.9905C62.2277 19.9905 62.7751 20.4965 62.93 21.4777H64.3243C64.159 19.7426 62.8474 18.8957 61.1536 18.8957C59.0984 18.8957 57.5698 20.4449 57.5698 22.6654V22.748C57.5698 25.0202 58.8608 26.497 61.1743 26.497Z"
        fill="#747474"></path>
      <path
        d="M67.8689 26.497C69.2528 26.497 70.172 25.8774 70.3476 24.7413H69.1392C69.0463 25.268 68.6538 25.5675 67.8999 25.5675C66.9704 25.5675 66.454 24.9892 66.4127 23.9667H70.3682V23.6052C70.3682 21.6739 69.1599 20.8787 67.8173 20.8787C66.2784 20.8787 65.132 21.9941 65.132 23.6672V23.7498C65.132 25.4539 66.2784 26.497 67.8689 26.497ZM66.4333 23.1302C66.5573 22.2936 67.0633 21.7875 67.8173 21.7875C68.5918 21.7875 69.0669 22.2006 69.1289 23.1302H66.4333Z"
        fill="#747474"></path>
      <path
        d="M71.4845 26.3938H72.7341V23.5846C72.7341 22.4382 73.3951 22.087 74.4899 22.0767V20.9097C73.581 20.92 73.0749 21.3228 72.7341 22.0044V20.9923H71.4845V26.3938Z"
        fill="#747474"></path>
      <path
        d="M77.4782 26.4867C77.8603 26.4867 78.1288 26.4247 78.3251 26.3524V25.361C78.1495 25.4333 77.9636 25.4643 77.7157 25.4643C77.3233 25.4643 77.096 25.2474 77.096 24.7723V21.9321H78.2837V20.9923H77.096V19.8046H75.8464V20.9923H75.1234V21.9321H75.8464V24.8859C75.8464 25.9084 76.4041 26.4867 77.4782 26.4867Z"
        fill="#747474"></path>
      <path
        d="M79.4832 26.3938H80.7329V20.9923H79.4832V26.3938ZM80.0926 20.1041C80.5057 20.1041 80.8362 19.7943 80.8362 19.3915C80.8362 18.9783 80.5057 18.6685 80.0926 18.6685C79.6795 18.6685 79.349 18.9783 79.349 19.3915C79.349 19.7943 79.6795 20.1041 80.0926 20.1041Z"
        fill="#747474"></path>
      <path
        d="M82.473 26.3938H83.7227V21.9321H84.9517V20.9923H83.7227V20.2177C83.7227 19.7529 83.9292 19.4224 84.425 19.4224C84.6522 19.4224 84.8071 19.4431 84.9517 19.5051V18.5343C84.7554 18.4723 84.5799 18.4413 84.27 18.4413C83.1236 18.4413 82.473 19.0816 82.473 20.2693V20.9923H81.7397V21.9321H82.473V26.3938Z"
        fill="#747474"></path>
      <path
        d="M85.8877 26.3938H87.1374V20.9923H85.8877V26.3938ZM86.4971 20.1041C86.9102 20.1041 87.2407 19.7943 87.2407 19.3915C87.2407 18.9783 86.9102 18.6685 86.4971 18.6685C86.0839 18.6685 85.7535 18.9783 85.7535 19.3915C85.7535 19.7943 86.0839 20.1041 86.4971 20.1041Z"
        fill="#747474"></path>
      <path
        d="M91.036 26.497C92.4199 26.497 93.3391 25.8774 93.5147 24.7413H92.3063C92.2134 25.268 91.8209 25.5675 91.067 25.5675C90.1375 25.5675 89.6211 24.9892 89.5798 23.9667H93.5353V23.6052C93.5353 21.6739 92.327 20.8787 90.9844 20.8787C89.4455 20.8787 88.2991 21.9941 88.2991 23.6672V23.7498C88.2991 25.4539 89.4455 26.497 91.036 26.497ZM89.6004 23.1302C89.7244 22.2936 90.2304 21.7875 90.9844 21.7875C91.7589 21.7875 92.234 22.2006 92.296 23.1302H89.6004Z"
        fill="#747474"></path>
      <path
        d="M96.6758 26.497C97.4711 26.497 98.163 26.022 98.4522 25.4849V26.3938H99.7019V18.4929H98.4522V21.8185C98.1527 21.2815 97.6053 20.8787 96.7275 20.8787C95.3229 20.8787 94.3004 21.9734 94.3004 23.6982V23.7808C94.3004 25.5365 95.3229 26.497 96.6758 26.497ZM96.9857 25.5056C96.1801 25.5056 95.5811 24.9375 95.5811 23.7498V23.6672C95.5811 22.5002 96.1181 21.8598 97.0373 21.8598C97.9462 21.8598 98.4935 22.4485 98.4935 23.6362V23.7188C98.4935 24.9272 97.8532 25.5056 96.9857 25.5056Z"
        fill="#747474"></path>
      <path
        d="M25.2459 6.20702C25.2459 5.92128 25.0492 5.67396 24.7709 5.60912C23.2858 5.26816 21.6472 4.75911 19.9606 4.09399C16.8658 2.87179 14.2507 1.37587 12.6217 0C10.9951 1.37587 8.37771 2.87179 5.28525 4.09399C3.59867 4.75911 1.96008 5.26816 0.475025 5.60912C0.196728 5.67396 0 5.92128 0 6.20702V11.8065C0 11.8714 0 11.9338 0 11.9986C0 19.8769 5.53716 25.3179 12.6217 28C19.7063 25.3179 25.2435 19.8769 25.2435 11.9986C25.2435 11.9338 25.2435 11.8714 25.2435 11.8065V6.20702H25.2459Z"
        fill="#747474"></path>
      <path fillRule="evenodd" clipRule="evenodd"
        d="M18.8486 11.4166L11.801 17.9781L7.87109 13.9214L8.65555 13.1615L11.8404 16.4491L18.1043 10.6172L18.8486 11.4166Z"
        fill="white"></path>
    </symbol>

    <!--  -->
    <symbol id="" viewBox="">
    </symbol>
  </defs>
</svg>