<!--LINK https://developer.mozilla.org/en-US/docs/Web/SVG/Element/symbol -->

<svg aria-hidden="true" style="position: absolute; width: 0; height: 0; overflow: hidden;" version="1.1"
  xmlns="http://www.w3.org/2000/svg" xmlns:xlink="http://www.w3.org/1999/xlink">
  <defs>
    <!-- arrow-left -->
    <symbol id="arrow-left" viewBox="0 0 24 24" fill="#1371C8">
      <path d="M0 0h24v24H0V0z" fill="none" />
      <path
        d="M19 11H7.83l4.88-4.88c.39-.39.39-1.03 0-1.42a.996.996 0 00-1.41 0l-6.59 6.59a.996.996 0 000 1.41l6.59 6.59a.996.996 0 101.41-1.41L7.83 13H19c.55 0 1-.45 1-1s-.45-1-1-1z" />
    </symbol>

    <!-- arrow-right -->
    <symbol id="arrow-right" viewBox="0 0 24 24" fill="#1371C8">
      <path d="M0 0h24v24H0V0z" fill="none" />
      <path
        d="M5 13h11.17l-4.88 4.88c-.39.39-.39 1.03 0 1.42.39.39 1.02.39 1.41 0l6.59-6.59a.996.996 0 000-1.41l-6.58-6.6a.996.996 0 10-1.41 1.41L16.17 11H5c-.55 0-1 .45-1 1s.45 1 1 1z" />
    </symbol>


    <symbol id="loading-circle" width="100px" height="100px" viewBox="0 0 100 100" version="1.1">
      <title>loading-circle</title>
      <g id="3DS-2.0-App" stroke="none" stroke-width="1" fill="none" fill-rule="evenodd">
        <g id="Loading-IN-1" transform="translate(-138.000000, -184.000000)">
          <g id="Group-3" transform="translate(138.000000, 184.000000)">
            <g id="Loading-Spinner">
              <rect id="Padding" x="8.14163551e-14" y="-3.0346096e-13" width="98.9669421" height="99.1735537" />
              <path
                d="M50,97.9166667 C76.4636443,97.9166667 97.9166667,76.4636443 97.9166667,50 C97.9166667,23.5363557 76.4636443,2.08333333 50,2.08333333 C23.5363557,2.08333333 2.08333333,23.5363557 2.08333333,50"
                id="Oval" stroke="#005EA6" stroke-width="2" stroke-linecap="square"
                transform="translate(50.000000, 50.000000) scale(-1, 1) translate(-50.000000, -50.000000) " />
            </g>
          </g>
        </g>
      </g>
    </symbol>

    <!-- check-mark -->
    <symbol id="check-mark" viewBox="0 0 18 14">
      <path
        d="M5.79457 10.8749L2.32457 7.40489C2.13774 7.21764 1.88409 7.1124 1.61957 7.1124C1.35505 7.1124 1.1014 7.21764 0.91457 7.40489C0.52457 7.79489 0.52457 8.42489 0.91457 8.81489L5.09457 12.9949C5.48457 13.3849 6.11457 13.3849 6.50457 12.9949L17.0846 2.41489C17.4746 2.02489 17.4746 1.39489 17.0846 1.00489C16.8977 0.817635 16.6441 0.712402 16.3796 0.712402C16.1151 0.712402 15.8614 0.817635 15.6746 1.00489L5.79457 10.8749Z" />
    </symbol>


    <!-- check-mark-green -->
    <symbol id="check-mark-green" fill="none" width="18" height="14" viewBox="0 0 18 14"
      xmlns="http://www.w3.org/2000/svg">
      <path
        d="M5.795 10.875l-3.47-3.47a.996.996 0 1 0-1.41 1.41l4.18 4.18c.39.39 1.02.39 1.41 0l10.58-10.58a.996.996 0 1 0-1.41-1.41l-9.88 9.87z"
        fill="#14BF71" />
    </symbol>

    <!-- chevron-down -->
    <symbol id="chevron-down" viewBox="0 0 25 24">
      <path
        d="M16.3753 9.00001L12.4953 12.88L8.61534 9.00001C8.42851 8.81275 8.17486 8.70752 7.91034 8.70752C7.64582 8.70752 7.39217 8.81275 7.20534 9.00001C6.81534 9.39001 6.81534 10.02 7.20534 10.41L11.7953 15C12.1853 15.39 12.8153 15.39 13.2053 15L17.7953 10.41C18.1853 10.02 18.1853 9.39001 17.7953 9.00001C17.4053 8.62001 16.7653 8.61001 16.3753 9.00001Z"
        fill="#333333" />
    </symbol>

    <!-- sp-logo-blue -->
    <symbol id="sp-logo-blue" viewBox="0 0 165 24" xmlns="http://www.w3.org/2000/svg">
      <path fill-rule="evenodd" clip-rule="evenodd"
        d="M6.764 1.448C2.9-1.446 1.454.72 1.152 1.746l-.007.025C.682 3.34.505 3.94.09 5.748c-.657 2.872 2.36 3.715 4.983 3.915.168.017.305.026.397.033l.113.008c.172.02.196.168.158.279-.011.035-.04.118-.2.21l-.05.028s-2.294 1.211-2.337 2.446c-.032.918 1.03 1.69 1.97 2.033l.012.004.003.001.004.002.005.002.003.001c.063.024.128.047.197.069 2.456.769 4.976-2.167 5.687-3.79.71-1.624.546-3.337.11-4.284-.278-.605-1.737-3.572-4.382-5.257zm9.497.647c.938-.954 1.781-1.53 2.191-1.393 1.05.352.987 2.16.109 4.582-.699 1.926-2.73 3.64-3.284 3.97a.174.174 0 0 0-.082.095c-.052.164.091.238.275.331.349.179.842.431.406 1.523-.692 1.734-2.193 2.732-3.362 2.349-.571-.188-.726-.95-.684-1.871a7.24 7.24 0 0 1 .064-.603c.052-.374.124-.748.21-1.115l.076-.32.138-.553c.586-2.22 2.002-5.024 3.943-6.995zm50.492 17.351h2.436V2.825h-2.436v16.621zM32.79 19.42h-2.479V8.035h2.48V19.42zM31.54 6.555c.841 0 1.531-.729 1.531-1.617 0-.887-.69-1.616-1.53-1.616-.82 0-1.51.729-1.51 1.616 0 .888.69 1.617 1.51 1.617zm-9.702 4.304c0-.73.754-1.07 1.53-1.07 1.057 0 1.833.591 2.027 1.73l2.07-.296.064-.114c-.302-2.14-1.832-3.302-4.117-3.302-2.242 0-3.773 1.435-3.773 3.165 0 1.822 1.143 2.8 3.298 3.37 2.005.524 2.738.933 2.738 1.799 0 .865-.84 1.366-1.854 1.366-1.574 0-2.242-.774-2.5-1.935l-2.048.364-.043.136c.366 2.232 2.004 3.575 4.57 3.575 2.543 0 4.203-1.617 4.203-3.734 0-1.799-1.164-2.71-3.363-3.325-1.961-.569-2.802-.955-2.802-1.73zm16.268-1.48c.84-.98 1.919-1.571 3.234-1.571 1.38 0 2.198.591 2.694 1.616 1.014-1.047 2.177-1.616 3.514-1.616 2.22 0 3.32 1.365 3.32 3.37v8.241H48.41v-7.582c0-1.07-.496-1.753-1.573-1.753-.97 0-1.747.546-2.35 1.526v7.81h-2.458v-7.537c0-1.093-.452-1.799-1.53-1.799-.97 0-1.811.752-2.393 1.685v7.65H35.65V8.035h2.457v1.343zm18.038 3.506c0-1.64 1.293-2.846 2.867-2.846 1.703 0 3.082 1.184 3.082 3.688 0 2.505-1.38 3.689-3.06 3.689-1.596 0-2.889-1.23-2.889-2.869v-1.662zm0-4.85h-2.48v15.938h2.48V18.35c.776.797 1.961 1.298 3.276 1.298 2.76 0 5.152-2.095 5.152-5.92 0-3.825-2.457-5.92-4.98-5.92-1.637 0-2.758.706-3.448 1.48V8.035zm33.131 1.12c2.306 0 3.578 1.616 3.578 4.599s-1.422 4.6-3.578 4.6c-2.09 0-3.449-1.913-3.449-3.53V12.82c0-1.799 1.143-3.665 3.45-3.665zM84.49 8.062V24h1.337v-6.148c.82 1.162 2.07 1.822 3.622 1.822 2.716 0 4.742-2.118 4.742-5.92s-2.004-5.92-4.656-5.92a4.52 4.52 0 0 0-3.708 1.844V8.062H84.49zm13.12 0v1.707c.539-.956 1.703-1.935 3.061-1.935.452 0 .733.068.926.182l-.236 1.207c-.173-.046-.388-.068-.755-.068-1.164 0-2.414 1.002-2.996 2.481v7.81h-1.337V8.062h1.337zm8.74 5.851l2.954-.318v2.481c-.949 1.435-2.134 2.277-3.557 2.277-1.294 0-2.134-.865-2.134-2.072 0-1.388 1.078-2.186 2.737-2.368zm4.764 5.67c.301 0 .69-.046 1.035-.228v-1.138c-.216.068-.389.09-.561.09-.647 0-.949-.455-.949-1.183v-5.26c0-2.505-1.465-4.03-3.966-4.03-1.682 0-3.643.956-3.837 3.46h1.336c.151-1.32 1.1-2.14 2.458-2.14 1.767 0 2.673.889 2.673 2.756v.478l-3.341.364c-1.941.205-3.686 1.298-3.686 3.53 0 2.026 1.25 3.392 3.298 3.392 1.703 0 2.888-.956 3.729-1.936.086.957.69 1.845 1.811 1.845zm7.667-1.23c2.134 0 3.147-1.047 3.622-2.846h1.271c-.28 2.46-2.177 4.167-4.936 4.167-3.083 0-5.282-2.368-5.282-5.92s2.199-5.92 5.282-5.92c2.824 0 4.548 1.525 4.936 4.167h-1.271c-.389-1.776-1.596-2.846-3.622-2.846-2.285 0-3.988 1.844-3.988 4.599s1.703 4.6 3.988 4.6zm9.644-10.291V5.17l-1.337-.524v3.416h-2.026v1.184h2.026v7.764c0 1.503.734 2.664 2.372 2.664.474 0 .905-.046 1.444-.228v-1.161c-.409.137-.625.205-1.034.205-.927 0-1.445-.478-1.445-1.685v-7.56h2.479V8.063h-2.479zm5.145 11.384h1.336V8.062h-1.336v11.384zm.668-15.574c.56 0 1.035.501 1.035 1.093s-.475 1.093-1.035 1.093c-.56 0-1.035-.501-1.035-1.093s.475-1.093 1.035-1.093zm12.355 11.635c-.474 1.799-1.487 2.846-3.621 2.846-2.285 0-3.988-1.844-3.988-4.6 0-2.754 1.703-4.598 3.988-4.598 2.026 0 3.233 1.07 3.621 2.846h1.272c-.388-2.642-2.112-4.167-4.936-4.167-3.083 0-5.282 2.368-5.282 5.92s2.199 5.92 5.282 5.92c2.759 0 4.656-1.708 4.936-4.167h-1.272zm4.757-2.664h7.2c-.043-2.026-1.466-3.688-3.557-3.688-2.09 0-3.427 1.548-3.643 3.688zm0 1.184c.043 2.596 1.531 4.326 3.687 4.326 2.069 0 2.866-1.252 3.233-2.527h1.337c-.539 2.3-2.027 3.848-4.592 3.848-3.04 0-5.131-2.368-5.131-5.92s2.286-5.92 5.109-5.92c2.803 0 4.894 2.05 4.894 5.51v.683h-8.537zM79.646 12.57c-.151-1.685-1.402-2.619-2.932-2.619-1.466 0-2.673.957-2.953 2.619h5.885zm-2.888 4.895c1.34 0 2.202-.612 2.655-1.575h2.333c-.743 2.436-2.486 3.784-5.031 3.784-3.234 0-5.39-2.368-5.39-5.92s2.523-5.92 5.39-5.92c3.04 0 5.238 2.163 5.238 5.829v.797h-8.235c.108 1.867 1.315 3.005 3.04 3.005z" />
    </symbol>

    <!-- p-logo-butterfly  -->
    <symbol id="sp-logo-butterfly" viewBox="0 0 30 24">
      <g fill="#3472AD" fillRule="evenodd">
        <path
          d="M28.767 2.029c-.649-.212-1.985.677-3.472 2.15-3.076 3.044-5.321 7.374-6.25 10.802l-.22.855-.119.493a18.55 18.55 0 00-.333 1.723c-.053.37-.09.692-.102.93-.067 1.423.18 2.6 1.085 2.89 1.852.591 4.231-.95 5.33-3.628 1.053-2.572-1.321-2.127-1.08-2.863a.27.27 0 01.129-.146c.878-.511 4.098-3.157 5.205-6.132 1.392-3.74 1.492-6.532-.173-7.074M10.721 2.866c-6.126-4.4-8.415-1.105-8.895.453C1.084 5.733.805 6.64.145 9.406c-1.042 4.367 3.739 5.649 7.897 5.954.42.04.715.052.809.062.273.03.31.255.25.424-.018.053-.064.18-.316.32l-.08.042S5.068 18.05 5 19.928c-.05 1.395 1.634 2.57 3.123 3.09l.024.01.015.005.004.001c.1.037.203.073.313.105 3.892 1.17 7.886-3.296 9.013-5.764 1.127-2.469.865-5.074.174-6.514-.44-.92-2.753-5.432-6.945-7.995" />
      </g>
    </symbol>
    <symbol id="mob-icon-close" viewBox="0 0 18 17">
      <path
        d="M15.01.368l2.122 2.122-6.01 6.01 6.01 6.01-2.122 2.122L9 10.622l-6.01 6.01L.868 14.51 6.88 8.5.87 2.49 2.988.368 9 6.38 15.01.37z"
        fill-rule="evenodd" />
    </symbol>

    <symbol id="mob-icon-open" viewBox="0 0 18 17">
      <g fill-rule="evenodd">
        <path d="M0 0h20v3H0zM0 7h20v3H0zM0 14h20v3H0z" />
      </g>
    </symbol>

    <symbol id="chevron-down" viewBox="0 0 20 20">
      <path d="M9.293 12.95l0.707 0.707 5.657-5.657-1.414-1.414-4.243 4.242-4.243-4.242-1.414 1.414z"></path>
    </symbol>

    <symbol id="chevron-up" viewBox="0 0 20 20">
      <path d="M10.707 7.050l-0.707-0.707-5.657 5.657 1.414 1.414 4.243-4.242 4.243 4.242 1.414-1.414z"></path>
    </symbol>

    <!--  -->
    <symbol id="" viewBox="">
    </symbol>
  </defs>
</svg>