<svg aria-hidden="true" style="position: absolute; width: 0; height: 0; overflow: hidden;" version="1.1"
  xmlns="http://www.w3.org/2000/svg" xmlns:xlink="http://www.w3.org/1999/xlink">
  <defs>
    <symbol id="chevron-down" viewBox="0 0 22 14" fill="none" xmlns="http://www.w3.org/2000/svg">
      <path
        d="M12.2909 12.4999L20.7059 4.08488C21.4209 3.36988 21.4209 2.21488 20.7059 1.49988C19.9909 0.784882 18.8359 0.784882 18.1209 1.49988L10.9893 8.61322L3.87594 1.49988C3.16094 0.784881 2.00594 0.784881 1.29094 1.49988C0.575936 2.21488 0.575936 3.36988 1.29094 4.08488L9.70594 12.4999C10.4026 13.2149 11.5759 13.2149 12.2909 12.4999Z"
        fill="#333333" />
    </symbol>

    <symbol id="chevron-up" viewBox="0 0 22 14" fill="none" xmlns="http://www.w3.org/2000/svg">
      <path
        d="M12.2909 1.50012L20.7059 9.91512C21.4209 10.6301 21.4209 11.7851 20.7059 12.5001C19.9909 13.2151 18.8359 13.2151 18.1209 12.5001L10.9893 5.38678L3.87594 12.5001C3.16094 13.2151 2.00594 13.2151 1.29094 12.5001C0.575936 11.7851 0.575936 10.6301 1.29094 9.91512L9.70594 1.50012C10.4026 0.785118 11.5759 0.785118 12.2909 1.50012Z"
        fill="#333333" />
    </symbol>
  </defs>
</svg>